<?xml version="1.0" encoding="UTF-8" standalone="no"?>
<svg
   xmlns:dc="http://purl.org/dc/elements/1.1/"
   xmlns:cc="http://creativecommons.org/ns#"
   xmlns:rdf="http://www.w3.org/1999/02/22-rdf-syntax-ns#"
   xmlns:svg="http://www.w3.org/2000/svg"
   xmlns="http://www.w3.org/2000/svg"
   xmlns:sodipodi="http://sodipodi.sourceforge.net/DTD/sodipodi-0.dtd"
   xmlns:inkscape="http://www.inkscape.org/namespaces/inkscape"
   version="1.1"
   id="uikit_avatar"
   x="0px"
   y="0px"
   width="50px"
   height="50px"
   viewBox="-0.5 0.5 50 50"
   enable-background="new -0.5 0.5 50 50"
   xml:space="preserve"
   sodipodi:docname="uikit_avatar.svg"
   inkscape:version="0.92.1 r15371"><metadata
     id="metadata15"><rdf:RDF><cc:Work
         rdf:about=""><dc:format>image/svg+xml</dc:format><dc:type
           rdf:resource="http://purl.org/dc/dcmitype/StillImage" /></cc:Work></rdf:RDF></metadata><defs
     id="defs13" /><sodipodi:namedview
     pagecolor="#ffffff"
     bordercolor="#666666"
     borderopacity="1"
     objecttolerance="10"
     gridtolerance="10"
     guidetolerance="10"
     inkscape:pageopacity="0"
     inkscape:pageshadow="2"
     inkscape:window-width="1920"
     inkscape:window-height="987"
     id="namedview11"
     showgrid="false"
     inkscape:zoom="4.72"
     inkscape:cx="1.6949153"
     inkscape:cy="25"
     inkscape:window-x="0"
     inkscape:window-y="0"
     inkscape:window-maximized="1"
     inkscape:current-layer="uikit_avatar" /><rect
     x="-0.5"
     y="0.5"
     fill="#3AA9D7"
     width="50"
     height="50"
     id="rect2"
     style="fill:#ec483b;fill-opacity:1" /><g
     id="g8"><path
       fill="#FFFFFF"
       d="M44.95,41.846c-0.209-1.166-0.474-2.246-0.791-3.242c-0.319-0.996-0.747-1.967-1.286-2.914   c-0.538-0.943-1.155-1.754-1.852-2.42c-0.699-0.668-1.551-1.201-2.56-1.599c-1.006-0.397-2.114-0.599-3.332-0.599   c-0.179,0-0.597,0.215-1.255,0.643c-0.654,0.43-1.396,0.907-2.229,1.434c-0.824,0.529-1.9,1.006-3.228,1.438   c-1.325,0.432-2.655,0.646-3.989,0.646c-1.334,0-2.664-0.215-3.989-0.646c-1.325-0.432-2.401-0.904-3.227-1.438   c-0.828-0.523-1.569-1.004-2.226-1.434c-0.658-0.428-1.076-0.643-1.255-0.643c-1.216,0-2.326,0.199-3.332,0.599   c-1.006,0.397-1.858,0.931-2.554,1.599c-0.699,0.666-1.315,1.477-1.853,2.42c-0.538,0.947-0.967,1.916-1.285,2.914   C4.395,39.6,4.13,40.68,3.921,41.846c-0.209,1.164-0.349,2.25-0.418,3.256c-0.07,1.006-0.104,2.103-0.104,3.154   C3.401,49.04,3.487,49.5,3.643,50.5h41.589c0.156-1,0.242-1.46,0.242-2.243c0-1.055-0.035-2.118-0.105-3.124   S45.16,43.01,44.95,41.846z"
       id="path4" /><path
       fill="#FFFFFF"
       d="M24.438,32.984c3.167,0,5.871-1.121,8.113-3.36c2.241-2.242,3.361-4.945,3.361-8.113   s-1.121-5.872-3.361-8.112c-2.242-2.241-4.945-3.362-8.113-3.362c-3.167,0-5.872,1.121-8.112,3.362   c-2.242,2.241-3.362,4.945-3.362,8.112s1.12,5.871,3.362,8.113C18.565,31.865,21.271,32.984,24.438,32.984z"
       id="path6" /></g></svg>