<?xml version="1.0" encoding="iso-8859-1"?>
<!-- Generator: Adobe Illustrator 19.0.0, SVG Export Plug-In . SVG Version: 6.00 Build 0)  -->
<svg version="1.1" id="Capa_1" xmlns="http://www.w3.org/2000/svg" xmlns:xlink="http://www.w3.org/1999/xlink" x="0px" y="0px"
	 viewBox="0 0 480.245 480.245" style="enable-background:new 0 0 480.245 480.245;" xml:space="preserve">
<g>
	<g>
		<path d="M320.245,0.123c-40.768,0-77.904,15.456-106.184,40.648c-5.208-6.504-10.136-13.104-14.528-19.808
			c-0.088-0.2-0.12-0.416-0.224-0.608c-1.4-2.608-4.112-4.232-7.064-4.232h-0.256c-2.952,0-5.6,1.72-6.992,4.32
			c-0.04,0.072-0.048,0.16-0.088,0.24c-19.896,30.44-46.496,56.968-77.008,76.728c-30.336,19.648-65.24,33.064-100.928,38.816
			c-3.768,0.6-6.576,3.784-6.728,7.592c-1.64,43.4,3.624,128.744,57.256,212.608c40.44,63.248,92.464,101.096,129.456,121.888
			c1.392,1.128,3.144,1.808,5.032,1.808h0.256c1.848,0,3.56-0.648,4.92-1.752c37-20.776,89.08-58.64,129.56-121.944
			c7.84-12.264,14.872-25.064,21.456-38.912c74.928-13.264,132.064-78.712,132.064-157.392
			C480.245,71.899,408.469,0.123,320.245,0.123z M313.245,347.819c-37.688,58.936-85.944,94.848-121.136,115.04
			c-35.184-20.192-83.44-56.104-121.136-115.04c-48.736-76.232-55.696-153.776-54.912-196.936
			c35.576-6.632,70.2-20.408,100.528-40.048c29.304-18.976,55.216-43.824,75.528-72.312c3.24,4.528,6.664,9.024,10.24,13.44
			c-1.344,1.464-2.528,3.04-3.808,4.552c-0.96,1.128-1.92,2.248-2.848,3.4c-2.384,2.944-4.624,5.976-6.776,9.056
			c-0.688,0.992-1.384,1.968-2.056,2.976c-1.896,2.856-3.68,5.768-5.384,8.736c-1.72,0.64-3.224,1.808-4.168,3.456
			c-7.984,13.872-22.936,27.272-46.056,45.736c-30.648,24.464-62.848,34.376-84.464,38.384c-3.672,0.68-6.392,3.816-6.536,7.552
			c-1.248,31.72,2.44,94.24,41.2,156.544c32.848,52.808,76.328,82.888,107,98.824c0.016,0.008,0.024,0,0.04,0.008
			c1.08,0.544,2.256,0.936,3.544,0.936h0.2c1.272,0,2.424-0.392,3.496-0.928c0.032-0.016,0.064-0.008,0.088-0.024
			c30.68-15.936,74.144-46.008,107-98.824c2.408-3.872,4.816-8.12,7.328-12.736c3.352,0.208,6.688,0.512,10.088,0.512
			c2.944,0,5.928-0.104,9.016-0.304C324.269,329.611,318.973,338.851,313.245,347.819z M161.037,175.819
			c0.112,1.184,0.328,2.336,0.472,3.52c0.48,4.088,1.072,8.136,1.856,12.12c0.192,0.968,0.44,1.92,0.656,2.888
			c0.928,4.304,2.008,8.536,3.272,12.704c0.144,0.48,0.304,0.952,0.456,1.432c13.992,44.584,46.824,80.704,89.856,98.848
			c0.344,0.152,0.696,0.288,1.048,0.432c3.952,1.632,7.984,3.112,12.096,4.432c1.312,0.424,2.616,0.84,3.944,1.232
			c3.152,0.92,6.344,1.736,9.576,2.472c2.056,0.472,4.112,0.944,6.2,1.344c0.824,0.152,1.616,0.384,2.44,0.528
			c-1.232,2.144-2.44,4.168-3.664,6.128c-29.648,47.656-68.488,75.656-97.104,91.12c-28.624-15.464-67.464-43.464-97.104-91.12
			c-34.096-54.808-39.376-109.824-38.968-141.192c31.208-6.792,60.528-20.664,85.168-40.328c8.904-7.112,16.688-13.552,23.44-19.632
			c-0.256,1.064-0.44,2.152-0.672,3.224c-0.2,0.92-0.44,1.816-0.624,2.744c-0.192,0.984-0.392,1.968-0.568,2.952
			c-0.664,3.664-1.168,7.36-1.576,11.072c-0.056,0.528-0.136,1.04-0.184,1.568c-0.088,0.92-0.128,1.856-0.2,2.784
			c-0.36,4.328-0.608,8.672-0.608,13.032C160.245,165.419,160.541,170.651,161.037,175.819z M341.645,302.355
			c-0.008,0-0.016,0-0.032,0c-3.464,0.52-6.656,0.896-9.72,1.176c-3.848,0.312-7.712,0.592-11.648,0.592
			c-4.704,0-9.352-0.264-13.944-0.704c0,0,0,0-0.008,0c-2.8-0.272-5.528-0.768-8.28-1.192c-1.992-0.312-4.016-0.528-5.984-0.92
			c-1.648-0.32-3.24-0.792-4.864-1.176c-3.12-0.736-6.248-1.456-9.288-2.392c-0.64-0.192-1.248-0.44-1.88-0.648
			c-44.344-14.36-79.376-49.632-93.264-94.184c0-0.008-0.008-0.024-0.008-0.032c-1.28-4.104-2.32-8.304-3.232-12.552
			c-0.104-0.512-0.256-1-0.36-1.512c-0.784-3.856-1.336-7.8-1.8-11.76c-0.096-0.848-0.272-1.672-0.36-2.528
			c-0.472-4.728-0.728-9.536-0.728-14.4c0-4.376,0.272-8.696,0.656-12.976c0.088-0.968,0.16-1.944,0.272-2.912
			c0.024-0.232,0.072-0.448,0.104-0.68c0.44-3.792,0.992-7.544,1.72-11.232c0.216-1.088,0.472-2.16,0.712-3.24
			c0.752-3.408,1.608-6.776,2.6-10.096c0.216-0.728,0.392-1.456,0.624-2.184c1.232-3.912,2.656-7.728,4.208-11.488
			c0.32-0.792,0.656-1.568,1-2.352c22.16-51.032,73.008-86.84,132.104-86.84c79.4,0,144,64.6,144,144
			C464.245,232.235,410.909,291.962,341.645,302.355z"/>
	</g>
</g>
<g>
	<g>
		<path d="M320.245,32.123c-70.576,0-128,57.424-128,128s57.424,128,128,128s128-57.424,128-128S390.821,32.123,320.245,32.123z
			 M328.245,271.715v-15.592h-16v15.592c-55.368-3.936-99.656-48.224-103.592-103.592h15.592v-16h-15.592
			c3.936-55.368,48.224-99.656,103.592-103.592v15.592h16V48.531c55.368,3.936,99.656,48.224,103.592,103.592h-15.592v16h15.592
			C427.901,223.491,383.613,267.779,328.245,271.715z"/>
	</g>
</g>
<g>
	<g>
		<path d="M386.589,98.467l-66.344,66.344l-34.344-34.344l-11.312,11.312l40,40c1.56,1.56,3.608,2.344,5.656,2.344
			c2.048,0,4.096-0.784,5.656-2.344l72-72L386.589,98.467z"/>
	</g>
</g>
<g>
</g>
<g>
</g>
<g>
</g>
<g>
</g>
<g>
</g>
<g>
</g>
<g>
</g>
<g>
</g>
<g>
</g>
<g>
</g>
<g>
</g>
<g>
</g>
<g>
</g>
<g>
</g>
<g>
</g>
</svg>
