<?xml version="1.0" encoding="UTF-8" standalone="no"?>
<svg id="Ebene_1" xmlns:rdf="http://www.w3.org/1999/02/22-rdf-syntax-ns#" xmlns="http://www.w3.org/2000/svg" enable-background="new 0 0 134 40" xml:space="preserve" height="40" viewBox="0 0 140 40" width="140" version="1.1" y="0px" x="0px" xmlns:cc="http://creativecommons.org/ns#" xmlns:dc="http://purl.org/dc/elements/1.1/"><metadata id="metadata27"><rdf:RDF><cc:Work rdf:about=""><dc:format>image/svg+xml</dc:format><dc:type rdf:resource="http://purl.org/dc/dcmitype/StillImage"/></cc:Work></rdf:RDF></metadata><g id="g4147"><rect id="rect15-6-9-6" height="40" width="42" y=".00391" x=".0023081" fill="#ec483b"/><path id="path3341-2-0-7" d="m21.002 9.3389-6.158 10.666-6.158 10.664h8.8904l0.62762-1.9102-4.4643-3.3837 5.4248 0.01819 1.8392-5.292 1.6591 5.1647 5.6013 0.11461-4.3988 3.1745 0.63854 2.1139h8.814l-6.158-10.665-6.158-10.666z" fill-rule="evenodd" fill="#fff"/><path id="path4142" fill="#666" d="m66.811 30.339h-1.8l-2.4-7.35h-6.84l-2.34 7.35h-1.77l6.72-21h1.59l6.84 21zm-4.65-9-3-9.39-2.91 9.39h5.91z"/><path id="path4144" fill="#666" d="m73.681 29.199q1.35 0 3-0.39l0.36 1.35q-1.92 0.51-3.48 0.51t-3.06-0.48q-3.12-1.02-3.12-5.25v-3.84q0-2.13 0.84-3.57 1.44-2.49 4.74-2.49 1.98 0 4.02 0.96l-0.48 1.23q-1.71-0.66-2.97-0.66-1.23 0-2.19 0.3t-1.62 1.35-0.66 2.7v4.35q0 3.93 4.62 3.93z"/><path id="path4146" fill="#666" d="m85.465 30.639q-6.57 0-6.57-5.37v-2.49q0-2.97 2.07-3.99 1.08-0.51 2.13-0.51 3.54 0 5.67 1.68 0-1.65-0.96-2.61-0.96-0.99-3.69-0.99l0.09-1.29q2.43 0 3.6 0.57 0.63 0.33 1.11 0.66t0.75 0.87 0.45 0.96q0.18 0.39 0.24 1.08 0.09 1.05 0.09 2.19v8.94q-3.12 0.3-4.98 0.3zm3.3-1.68v-7.71q-2.49-1.2-5.1-1.41-0.18-0.03-0.36-0.03-1.14 0-1.95 0.72-0.81 0.69-0.81 2.34v2.61q0 2.49 2.16 3.24 1.26 0.45 2.85 0.45t3.21-0.21z"/><path id="path4148" fill="#666" d="m103.1 16.509q2.55-1.44 4.83-1.44 2.16 0 3.42 1.38t1.26 3.51v10.38h-1.65v-10.29q0-1.35-0.57-2.19t-1.38-1.05-1.32-0.21q-0.48 0-1.11 0.06-0.6 0.03-1.62 0.42l-1.11 0.54q0.51 1.02 0.51 2.34v10.38h-1.65v-10.29q0-1.56-0.75-2.43-0.9-1.02-2.76-1.02-1.83 0-3.63 0.99v12.75h-1.68v-15.03h1.68l-0.15 0.96q2.07-1.17 4.17-1.17 2.13 0 3.51 1.41z"/><path id="path4150" fill="#666" d="m121.27 30.639q-6.57 0-6.57-5.37v-2.49q0-2.97 2.07-3.99 1.08-0.51 2.13-0.51 3.54 0 5.67 1.68 0-1.65-0.96-2.61-0.96-0.99-3.69-0.99l0.09-1.29q2.43 0 3.6 0.57 0.63 0.33 1.11 0.66t0.75 0.87 0.45 0.96q0.18 0.39 0.24 1.08 0.09 1.05 0.09 2.19v8.94q-3.12 0.3-4.98 0.3zm3.3-1.68v-7.71q-2.49-1.2-5.1-1.41-0.18-0.03-0.36-0.03-1.14 0-1.95 0.72-0.81 0.69-0.81 2.34v2.61q0 2.49 2.16 3.24 1.26 0.45 2.85 0.45t3.21-0.21z"/><path id="path4152" fill="#666" d="m136.24 16.839q-1.14-0.3-2.31-0.3t-2.13 0.54q-0.93 0.51-0.93 1.5v11.76h-1.68v-15.03h1.68l-0.09 1.05q1.41-1.29 3.72-1.29 1.02 0 2.19 0.24l-0.45 1.53z"/></g></svg>
