<?xml version="1.0" encoding="iso-8859-1"?>
<!-- Generator: Adobe Illustrator 19.0.0, SVG Export Plug-In . SVG Version: 6.00 Build 0)  -->
<svg version="1.1" id="Capa_1" xmlns="http://www.w3.org/2000/svg" xmlns:xlink="http://www.w3.org/1999/xlink" x="0px" y="0px"
	 viewBox="0 0 480 480" style="enable-background:new 0 0 480 480;" xml:space="preserve">
<g>
	<g>
		<path d="M400,40H280V8c0-4.416-3.576-8-8-8h-64c-4.424,0-8,3.584-8,8v32H80c-22.056,0-40,17.944-40,40v216
			c0,22.056,17.944,40,40,40h61.472l-37.184,133.856c-0.664,2.408-0.168,4.992,1.344,6.984c1.512,1.992,3.872,3.16,6.368,3.16h48
			c3.592,0,6.752-2.392,7.712-5.856L206.08,336h67.832l38.376,138.144c0.96,3.464,4.12,5.856,7.712,5.856h48
			c2.496,0,4.856-1.168,6.368-3.16c1.512-1.992,2.008-4.568,1.344-6.984L338.528,336H400c22.056,0,40-17.944,40-40V80
			C440,57.944,422.056,40,400,40z M216,16h48v24h-48V16z M153.92,464h-31.4l35.552-128h31.4L153.92,464z M357.48,464h-31.4
			l-35.552-128h31.4L357.48,464z M424,296c0,13.232-10.768,24-24,24h-72h-48h-80h-48H80c-13.232,0-24-10.768-24-24V80
			c0-13.232,10.768-24,24-24h128h64h128c13.232,0,24,10.768,24,24V296z"/>
	</g>
</g>
<g>
	<g>
		<rect x="72" y="96" width="16" height="72"/>
	</g>
</g>
<g>
	<g>
		<rect x="72" y="200" width="16" height="72"/>
	</g>
</g>
<g>
	<g>
		<rect x="264" y="288" width="128" height="16"/>
	</g>
</g>
<g>
	<g>
		<rect x="104" y="288" width="128" height="16"/>
	</g>
</g>
<g>
	<g>
		<rect x="256" y="80" width="136" height="16"/>
	</g>
</g>
<g>
	<g>
		<rect x="256" y="112" width="136" height="16"/>
	</g>
</g>
<g>
	<g>
		<rect x="256" y="144" width="136" height="16"/>
	</g>
</g>
<g>
	<g>
		<path d="M388.056,257.104L173.864,131.112l9-14.992l-13.72-8.232L160.072,123l-44.016-25.896
			c-2.464-1.456-5.528-1.472-8.024-0.048C105.536,98.48,104,101.128,104,104v120v40c0,4.416,3.576,8,8,8h40h232
			c3.608,0,6.776-2.416,7.72-5.896C392.664,262.624,391.168,258.936,388.056,257.104z M144,256h-24v-24h24V256z M160,256v-32
			c0-4.416-3.576-8-8-8h-32v-98.008l31.84,18.728l-6.696,11.168l13.72,8.232l6.776-11.288L354.624,256H160z"/>
	</g>
</g>
<g>
</g>
<g>
</g>
<g>
</g>
<g>
</g>
<g>
</g>
<g>
</g>
<g>
</g>
<g>
</g>
<g>
</g>
<g>
</g>
<g>
</g>
<g>
</g>
<g>
</g>
<g>
</g>
<g>
</g>
</svg>
