<?xml version="1.0" encoding="UTF-8" standalone="no"?>
<svg id="placeholder" xmlns:rdf="http://www.w3.org/1999/02/22-rdf-syntax-ns#" xmlns="http://www.w3.org/2000/svg" version="1.1" xml:space="preserve" height="260px" viewBox="0 0 480 260" width="480px" enable-background="new 0 0 480 260" y="0px" x="0px" xmlns:cc="http://creativecommons.org/ns#" xmlns:dc="http://purl.org/dc/elements/1.1/"><metadata id="metadata22"><rdf:RDF><cc:Work rdf:about=""><dc:format>image/svg+xml</dc:format><dc:type rdf:resource="http://purl.org/dc/dcmitype/StillImage"/></cc:Work></rdf:RDF></metadata><rect id="rect8" height="260" width="480" fill="#ec483b"/><text id="text3767" style="word-spacing:0px;letter-spacing:0px" xml:space="preserve" font-size="40px" line-height="125%" y="237.96609" x="-326.10168" font-family="Sans" fill="#000000"><tspan id="tspan3769"/></text>
<g id="g4556" fill="#fff" transform="translate(-2.6559 -7.5715)"><path id="path3341-2-0-7" d="m242.66 77.054-18.24 31.593-18.24 31.588h26.334l1.859-5.658-13.224-10.023 16.069 0.0539 5.4478-15.675 4.9144 15.298 16.591 0.33949-13.03 9.4031 1.8914 6.2615h26.108l-18.24-31.588z" fill-rule="evenodd"/><g id="g4546" transform="translate(-6.1538 -23.497)"><path id="path4142" d="m194.24 220.93h-3.5899l-4.7866-14.659h-13.642l-4.6669 14.659h-3.5301l13.402-41.883h3.1711zm-9.274-17.95-5.9832-18.728-5.8037 18.728z"/><path id="path4144" d="m207.94 218.65q2.6924 0 5.9832-0.77782l0.71799 2.6924q-3.8293 1.0172-6.9406 1.0172t-6.1029-0.95732q-6.2226-2.0343-6.2226-10.471v-7.6585q0-4.2481 1.6753-7.12 2.872-4.9661 9.4535-4.9661 3.9489 0 8.0175 1.9146l-0.95732 2.4531q-3.4104-1.3163-5.9234-1.3163-2.4531 0-4.3678 0.59833-1.9146 0.59832-3.231 2.6924-1.3163 2.0941-1.3163 5.3849v8.6757q0 7.838 9.2142 7.838z"/><path id="path4146" d="m231.44 221.53q-13.103 0-13.103-10.71v-4.9661q0-5.9234 4.1284-7.9577 2.154-1.0171 4.2481-1.0171 7.0602 0 11.308 3.3506 0-3.2908-1.9146-5.2054-1.9146-1.9745-7.3594-1.9745l0.1795-2.5728q4.8464 0 7.1799 1.1368 1.2565 0.65816 2.2138 1.3163 0.95732 0.65816 1.4958 1.7351 0.53849 1.077 0.89748 1.9146 0.359 0.77782 0.47866 2.154 0.1795 2.0941 0.1795 4.3678v17.83q-6.2226 0.59833-9.9322 0.59833zm6.5816-3.3506v-15.377q-4.9661-2.3933-10.171-2.8121-0.359-0.0598-0.71799-0.0598-2.2736 0-3.8891 1.436-1.6155 1.3761-1.6155 4.6669v5.2054q0 4.9661 4.3079 6.4619 2.513 0.89748 5.6841 0.89748t6.4021-0.41882z"/><path id="path4148" d="m266.62 193.34q5.0858-2.872 9.633-2.872 4.3079 0 6.8209 2.7523t2.513 7.0004v20.702h-3.2908v-20.522q0-2.6924-1.1368-4.3678-1.1368-1.6753-2.7523-2.0941-1.6155-0.41882-2.6326-0.41882-0.95731 0-2.2138 0.11966-1.1966 0.0598-3.231 0.83765l-2.2138 1.077q1.0172 2.0343 1.0172 4.6669v20.702h-3.2908v-20.522q0-3.1113-1.4958-4.8464-1.795-2.0343-5.5046-2.0343-3.6498 0-7.2397 1.9745v25.429h-3.3506v-29.976h3.3506l-0.29916 1.9146q4.1284-2.3335 8.3167-2.3335 4.2481 0 7.0004 2.8121z"/><path id="path4150" d="m302.84 221.53q-13.103 0-13.103-10.71v-4.9661q0-5.9234 4.1284-7.9577 2.154-1.0171 4.2481-1.0171 7.0602 0 11.308 3.3506 0-3.2908-1.9146-5.2054-1.9146-1.9745-7.3594-1.9745l0.1795-2.5728q4.8464 0 7.1799 1.1368 1.2565 0.65816 2.2138 1.3163 0.95732 0.65816 1.4958 1.7351 0.53849 1.077 0.89748 1.9146 0.359 0.77782 0.47866 2.154 0.1795 2.0941 0.1795 4.3678v17.83q-6.2226 0.59833-9.9322 0.59833zm6.5816-3.3506v-15.377q-4.9661-2.3933-10.171-2.8121-0.359-0.0598-0.71799-0.0598-2.2736 0-3.8891 1.436-1.6155 1.3761-1.6155 4.6669v5.2054q0 4.9661 4.3079 6.4619 2.513 0.89748 5.6841 0.89748t6.4021-0.41882z"/><path id="path4152" d="m332.7 194q-2.2736-0.59832-4.6071-0.59832t-4.2481 1.077q-1.8548 1.0172-1.8548 2.9916v23.454h-3.3506v-29.976h3.3506l-0.1795 2.0941q2.8121-2.5728 7.4192-2.5728 2.0343 0 4.3678 0.47866z"/></g></g></svg>
